<?xml version="1.0" encoding="utf-8"?>
<!DOCTYPE svg PUBLIC "-//W3C//DTD SVG 1.1//EN" "http://www.w3.org/Graphics/SVG/1.1/DTD/svg11.dtd">
<svg version="1.1" id="Layer_1" xmlns="http://www.w3.org/2000/svg" xmlns:xlink="http://www.w3.org/1999/xlink" x="0px" y="0px"
	 width="200px" height="96px" viewBox="0 0 200 96" enable-background="new 0 0 200 96" xml:space="preserve">
<g>
	<circle fill="#FCB316" cx="47.326" cy="48" r="47.326"/>
	<g>
		<path fill="#17181D" d="M33.354,39.027c0,2.546,0,4.797,0,7.211c-1.61,0-2.968,0-4.45,0c0-7.812,0-15.568,0-23.558
			c3.552,0,6.997,0,10.441,0c5.673,0,11.354,0.193,17.016-0.054c5.723-0.25,8.78,3.449,9.301,7.13
			c0.607,4.29-2.048,7.814-7.437,9.432c2.325,1.894,4.442,3.618,6.75,5.497c-1.651,1.52-2.676,2.465-3.925,3.616
			c-2.544-2.605-5.045-5.316-7.732-7.828c-0.817-0.764-2.137-1.355-3.243-1.383C44.589,38.951,39.096,39.027,33.354,39.027z
			 M33.403,34.508c7.837,0,15.38,0.005,22.924-0.002c3.049-0.003,4.782-1.313,4.827-3.614c0.046-2.36-1.611-3.682-4.706-3.689
			c-6.925-0.014-13.849-0.009-20.774,0.003c-0.747,0.001-1.494,0.099-2.271,0.155C33.403,29.843,33.403,32.029,33.403,34.508z"/>
		<path fill="#17181D" d="M60.991,72.839c-4.151-4.224-8.622-8.775-12.989-13.219c-4.71,4.725-9.296,9.326-13.722,13.766
			c-5.622-5.616-10.777-10.764-15.973-15.954c0.825-0.84,1.799-1.83,2.89-2.94c4.034,4.157,8.02,8.264,12.012,12.378
			c4.841-4.875,9.379-9.445,13.776-13.874c4.804,4.819,9.391,9.42,13.979,14.022c4.479-4.555,8.489-8.633,12.766-12.983
			c1.141,1.5,1.987,2.613,2.613,3.437C71.491,62.33,66.345,67.48,60.991,72.839z"/>
		<path fill="#FCB316" d="M33.45,34.508c0-2.479,0-4.665,0-7.147c0.777-0.055,1.524-0.153,2.271-0.155
			c6.925-0.012,13.849-0.017,20.774-0.003c3.095,0.006,4.752,1.329,4.706,3.689c-0.045,2.301-1.778,3.611-4.827,3.614
			C48.831,34.513,41.288,34.508,33.45,34.508z"/>
	</g>
</g>
<g>
	<path fill="#FCB316" d="M108.644,27.951l-3.289-6.201h-2.816v6.201h-3.101V11.243h6.84c0.757,0,3.005,0.071,4.496,2.035
		c0.971,1.278,1.018,2.722,1.018,3.266c0,0.26-0.023,1.089-0.308,1.87c-0.26,0.687-1.064,2.13-2.981,2.722l3.716,6.816H108.644z
		 M107.579,14.438c-0.545-0.355-1.184-0.497-2.509-0.497h-2.532v5.207h1.112c1.822,0,2.958,0,3.716-0.402
		c0.473-0.261,1.254-0.876,1.254-2.225C108.62,16.094,108.572,15.1,107.579,14.438z"/>
	<path fill="#FCB316" d="M114.652,27.951V11.243h11.881v2.792h-8.804v3.929h8.07v2.698h-8.07v4.473h9.396v2.816H114.652z"/>
	<path fill="#FCB316" d="M136.92,27.951h-4.212l-4.923-16.708h3.289l3.739,13.182l3.646-13.182h3.218L136.92,27.951z"/>
	<path fill="#FCB316" d="M143.781,27.951V11.243h3.076v16.708H143.781z"/>
	<path fill="#FCB316" d="M150.643,27.951V11.243h11.881v2.792h-8.804v3.929h8.07v2.698h-8.07v4.473h9.396v2.816H150.643z"/>
	<path fill="#FCB316" d="M179.396,27.951h-3.646l-2.343-11.62l-2.414,11.62h-3.645l-3.479-16.708h3.194l2.272,12.732l2.604-12.732
		h2.911l2.65,12.732l2.343-12.732h3.219L179.396,27.951z"/>
	<path fill="#FCB316" d="M196.621,26.649c-2.012,1.704-4.71,1.728-5.467,1.728c-0.994,0-4.189-0.047-6.509-2.485
		c-0.283-0.308-0.592-0.71-0.805-1.088l2.627-1.822c0.734,1.088,2.106,2.508,5.184,2.508c0.142,0,0.733,0,1.23-0.118
		c0.354-0.071,1.988-0.521,1.988-2.083c0-0.166-0.024-0.616-0.308-0.994c-0.568-0.757-2.083-0.97-2.911-1.16l-1.988-0.45
		c-0.852-0.189-1.775-0.378-2.532-0.781c-0.781-0.402-2.391-1.467-2.391-3.881c0-0.379,0.048-1.467,0.64-2.461
		c0.757-1.278,2.579-2.745,5.964-2.745c1.49,0,4.426,0.236,6.744,3.384l-2.579,1.917c-0.521-0.829-1.704-2.485-4.331-2.485
		c-0.166,0-2.271-0.023-2.958,1.278c-0.143,0.26-0.189,0.497-0.189,0.757c0,0.284,0.071,0.521,0.213,0.757
		c0.402,0.686,1.325,0.899,2.863,1.23l1.728,0.379c1.586,0.355,3.337,0.828,4.45,2.13c0.473,0.521,0.97,1.278,0.97,2.816
		C198.254,24.496,197.78,25.656,196.621,26.649z"/>
	<path fill="#8C8C8F" d="M122.652,53.791c-1.633,1.799-3.621,2.438-4.473,2.627c-0.402,0.095-1.112,0.236-2.154,0.236
		c-0.78,0-2.84-0.023-4.662-1.467c-1.064-0.853-2.698-2.746-2.698-6.13c0-2.438,0.758-4.946,2.367-6.84
		c0.592-0.686,1.254-1.254,2.035-1.728c1.87-1.112,3.929-1.184,4.615-1.184c3.147,0,4.946,1.42,5.774,2.414
		c1.184,1.42,1.728,3.526,1.704,5.325C125.138,48.111,124.9,51.329,122.652,53.791z M120.451,41.673
		c-0.449-0.26-1.42-0.71-2.769-0.71c-0.947,0-3.195,0.213-4.875,2.296c-1.752,2.153-1.894,5.041-1.894,5.822
		c0,0.379,0.023,1.325,0.379,2.343c0.733,2.201,2.532,3.574,4.875,3.574c0.828,0,2.579-0.189,4.213-1.657
		c2.438-2.201,2.579-5.538,2.579-6.461C122.983,43.827,121.611,42.336,120.451,41.673z"/>
	<path fill="#8C8C8F" d="M140.707,41.39h-8.686l-1.254,5.443h8.094l-0.402,1.704h-8.094l-1.799,7.81h-2.083l3.858-16.708h10.768
		L140.707,41.39z"/>
	<path fill="#8C8C8F" d="M160.063,41.437h-5.112l-3.432,14.91h-2.106l3.55-14.91h-5.159l0.402-1.799h12.26L160.063,41.437z"/>
	<path fill="#8C8C8F" d="M172.392,56.347h-2.06l1.847-7.976h-9.23l-1.846,7.976h-2.059l3.857-16.708h2.059l-1.609,6.981h9.23
		l1.609-6.981h2.059L172.392,56.347z"/>
	<path fill="#8C8C8F" d="M191.062,41.413h-8.757l-1.277,5.514h8.022l-0.379,1.657h-8.022l-1.396,5.987h9.939l-0.402,1.775h-12.046
		l3.857-16.708h10.863L191.062,41.413z"/>
	<path fill="#FCB316" d="M131.574,84.742h-3.646l-2.343-11.62l-2.414,11.62h-3.645l-3.479-16.708h3.194l2.272,12.732l2.604-12.732
		h2.911l2.65,12.732l2.343-12.732h3.219L131.574,84.742z"/>
	<path fill="#FCB316" d="M137.321,84.742V68.034h11.881v2.792h-8.804v3.929h8.07v2.698h-8.07v4.473h9.396v2.816H137.321z"/>
	<path fill="#FCB316" d="M152.11,84.742V68.034h11.881v2.792h-8.804v3.929h8.07v2.698h-8.07v4.473h9.396v2.816H152.11z"/>
	<path fill="#FCB316" d="M177.218,84.742l-4.449-7.857l-2.722,3.124v4.733h-3.1V68.034h3.1v7.667l6.698-7.667h3.668l-5.467,6.295
		l5.846,10.413H177.218z"/>
</g>
</svg>
