<?xml version="1.0" encoding="utf-8"?>
<!-- Generator: Adobe Illustrator 17.0.0, SVG Export Plug-In . SVG Version: 6.00 Build 0)  -->
<!DOCTYPE svg PUBLIC "-//W3C//DTD SVG 1.1//EN" "http://www.w3.org/Graphics/SVG/1.1/DTD/svg11.dtd">
<svg version="1.1" id="Layer_1" xmlns="http://www.w3.org/2000/svg" xmlns:xlink="http://www.w3.org/1999/xlink" x="0px" y="0px"
	 width="96px" height="96px" viewBox="0.333 0 96 96" enable-background="new 0.333 0 96 96" xml:space="preserve">
<g>
	<circle fill="#FCB316" cx="48.333" cy="48" r="47.326"/>
	<g>
		<path fill="#17181D" d="M34.361,39.027c0,2.546,0,4.797,0,7.211c-1.61,0-2.968,0-4.45,0c0-7.812,0-15.568,0-23.558
			c3.552,0,6.997,0,10.441,0c5.673,0,11.354,0.193,17.016-0.054c5.723-0.25,8.78,3.449,9.301,7.13
			c0.607,4.29-2.048,7.814-7.437,9.432c2.325,1.894,4.442,3.618,6.75,5.497c-1.651,1.52-2.676,2.465-3.925,3.616
			c-2.544-2.605-5.045-5.316-7.732-7.828c-0.817-0.764-2.137-1.355-3.243-1.383C45.596,38.951,40.103,39.027,34.361,39.027z
			 M34.41,34.508c7.837,0,15.38,0.005,22.924-0.002c3.049-0.003,4.782-1.313,4.827-3.614c0.046-2.36-1.611-3.682-4.706-3.689
			c-6.925-0.014-13.849-0.009-20.774,0.003c-0.747,0.001-1.494,0.099-2.271,0.155C34.41,29.843,34.41,32.029,34.41,34.508z"/>
		<path fill="#17181D" d="M61.998,72.839c-4.151-4.224-8.622-8.775-12.989-13.219c-4.71,4.725-9.296,9.326-13.722,13.766
			C29.665,67.77,24.51,62.622,19.314,57.432c0.825-0.84,1.799-1.83,2.89-2.94c4.034,4.157,8.02,8.264,12.012,12.378
			c4.841-4.875,9.379-9.445,13.776-13.874c4.804,4.819,9.391,9.42,13.979,14.022c4.479-4.555,8.489-8.633,12.766-12.983
			c1.141,1.5,1.987,2.613,2.613,3.437C72.498,62.33,67.352,67.48,61.998,72.839z"/>
		<path fill="#FCB316" d="M34.457,34.508c0-2.479,0-4.665,0-7.147c0.777-0.055,1.524-0.153,2.271-0.155
			c6.925-0.012,13.849-0.017,20.774-0.003c3.095,0.006,4.752,1.329,4.706,3.689c-0.045,2.301-1.778,3.611-4.827,3.614
			C49.838,34.513,42.295,34.508,34.457,34.508z"/>
	</g>
</g>
</svg>
